<?xml version="1.0" encoding="iso-8859-1"?>
<svg version="1.1" id="Layer_1" xmlns="http://www.w3.org/2000/svg" xmlns:xlink="http://www.w3.org/1999/xlink"
     x="0px" y="0px" width="512px" height="512px"
	 viewBox="0 0 512.001 512.001" style="enable-background:new 0 0 512.001 512.001;" xml:space="preserve">
<g>
	<g>
		<path d="M327.931,393.813l-35.359,3.535v-62.11h30.476c6.733,0,12.19-5.458,12.19-12.19V188.952c0-6.733-5.458-12.19-12.19-12.19
			h-30.476v-62.11l35.359,3.535c4.853,0.491,9.529-1.969,11.886-6.24c2.356-4.27,1.941-9.535-1.057-13.383L265.616,4.697
			C263.306,1.733,259.759,0,256.001,0c-3.758,0-7.306,1.733-9.616,4.698l-73.143,93.867c-2.998,3.847-3.413,9.112-1.057,13.383
			c2.356,4.27,7.035,6.726,11.886,6.24l35.359-3.536v62.11h-30.476c-6.733,0-12.19,5.458-12.19,12.19v134.095
			c0,6.733,5.458,12.19,12.19,12.19h30.476v62.11l-35.359-3.535c-4.847-0.486-9.529,1.97-11.886,6.24
			c-2.356,4.27-1.941,9.535,1.057,13.383l73.143,93.867c2.31,2.965,5.859,4.698,9.616,4.698c3.757,0,7.306-1.733,9.616-4.698
			l73.143-93.867c2.998-3.847,3.413-9.112,1.057-13.383C337.46,395.783,332.779,393.321,327.931,393.813z M209.972,91.095
			l46.029-59.07l46.029,59.071l-20.435-2.043c-3.427-0.341-6.839,0.78-9.393,3.091c-2.554,2.309-4.011,5.593-4.011,9.037v75.581
			H243.81v-75.581c0-3.444-1.457-6.728-4.011-9.039s-5.966-3.43-9.393-3.091L209.972,91.095z M201.143,310.857V201.143h109.714
			v109.714H201.143z M256.001,479.976l-46.029-59.071l20.435,2.043c3.427,0.339,6.839-0.78,9.393-3.092
			c2.554-2.311,4.011-5.594,4.011-9.039v-75.581h24.381v75.581c0,3.444,1.457,6.728,4.011,9.039
			c2.554,2.311,5.967,3.432,9.393,3.092l20.435-2.043L256.001,479.976z"/>
	</g>
</g>
<g>
</g>
<g>
</g>
<g>
</g>
<g>
</g>
<g>
</g>
<g>
</g>
<g>
</g>
<g>
</g>
<g>
</g>
<g>
</g>
<g>
</g>
<g>
</g>
<g>
</g>
<g>
</g>
<g>
</g>
</svg>
